# xmcd
#
# Track frame offsets: 
#        150
#        4439
#        30460
#        55107
#        87104
#        108134
#        125938
#        143143
#        163764
#        173425
#        190428
#        207555
#        220672
#        231828
#        241751
#        276876
#        314062
#
# Disc length: 4389 seconds
#
# Revision: 0
# Processed by: cddbd v1.5.2PL0 Copyright (c) Steve Scherf et al.
# Submitted via: ExactAudioCopy v0.99pb5
#
DISCID=f2112311
DTITLE=Joe Bethancourt - Naked Banjos
DYEAR=2002
DGENRE=Folk
TTITLE0=Soldier's Joy
TTITLE1=Cindy Cindy
TTITLE2=Lonesome Water
TTITLE3=Uncle Peter
TTITLE4=Too Late to Pray
TTITLE5=Me and my 30-'06
TTITLE6=Poor Wayfaring Stranger
TTITLE7=Wagoner's Lad
TTITLE8=Flop-Eared Mule
TTITLE9=Tom Dula
TTITLE10=Interlude: Grandpa's Closet - Who's Gonna Shoe Your Pretty Li
TTITLE10=ttle Foot?
TTITLE11=Ragtime Annie
TTITLE12=Sand Mountain Holler
TTITLE13=Interlude: Whyte Lady - Murder Ballads
TTITLE14=Silver Dagger
TTITLE15=Malagueña Suite
TTITLE16=Soldier's Joy+
EXTD=
EXTT0=
EXTT1=
EXTT2=
EXTT3=
EXTT4=
EXTT5=
EXTT6=
EXTT7=
EXTT8=
EXTT9=
EXTT10=
EXTT11=
EXTT12=
EXTT13=
EXTT14=
EXTT15=
EXTT16=
PLAYORDER=
